<?xml version='1.0' encoding='iso-8859-1'?>
<svg version="1.1" xmlns="http://www.w3.org/2000/svg" viewBox="0 0 44 44" xmlns:xlink="http://www.w3.org/1999/xlink" enable-background="new 0 0 44 44">
  <path d="M22,0C9.8,0,0,9.8,0,22s9.8,22,22,22s22-9.8,22-22S34.2,0,22,0z M35,23c0,0.6-0.4,1-1,1H17.4c-0.4,0-0.7,0.5-0.4,0.9l4,4  c0.4,0.4,0.4,1,0,1.4l-1.4,1.4c-0.2,0.2-0.4,0.3-0.7,0.3c-0.3,0-0.5-0.1-0.7-0.3l-9-9C9.1,22.5,9,22.3,9,22s0.1-0.5,0.3-0.7l9-9  c0.2-0.2,0.4-0.3,0.7-0.3c0.3,0,0.5,0.1,0.7,0.3l1.4,1.4c0.4,0.4,0.4,1,0,1.4l-4,4C16.8,19.4,17,20,17.5,20H34c0.6,0,1,0.4,1,1V23z"/>
</svg>
